# This file is brought to you by Roblox Corporation
# Generated by Roblox Studio

mtllib 002.mtl

g Weapon0021

v 0.11017 -0.691507 -1.04628 
v 0.250532 -0.883547 -1.14267 
v 0.00174669 -0.687248 -1.04628 
v -0.261673 -0.863422 -1.14267 
v -0.106677 -0.682988 -1.04628 
v 0.00174669 -0.687248 -1.04628 
v 0.250532 -0.883547 -1.14267 
v -0.00557059 -0.873484 -1.26418 
v 0.00174669 -0.687248 -1.04628 
v -0.00557059 -0.873484 -1.26418 
v -0.261673 -0.863422 -1.14267 
v 0.00174669 -0.687248 -1.04628 
v 0.250532 -0.883547 -1.14267 
v 0.11017 -0.691507 -1.04628 
v 0.397412 -0.828007 -0.921268 
v -0.106677 -0.682988 -1.04628 
v -0.261673 -0.863422 -1.14267 
v -0.403743 -0.79653 -0.921268 
v 0.11017 -0.691507 -1.04628 
v 0.00174669 -0.687248 -1.04628 
v 0.0081809 -0.523486 -1.21349 
v 0.00174669 -0.687248 -1.04628 
v -0.106677 -0.682988 -1.04628 
v 0.0081809 -0.523486 -1.21349 
v 0.265791 -0.533608 -1.09199 
v 0.404941 -0.585498 -0.902645 
v 0.11017 -0.691507 -1.04628 
v 0.0081809 -0.523486 -1.21349 
v -0.392222 -0.554178 -0.902645 
v -0.249429 -0.513365 -1.09199 
v -0.106677 -0.682988 -1.04628 
v 0.0081809 -0.523486 -1.21349 
v 0.0417725 0.331475 3.70051 
v -0.390084 0.215518 3.43404 
v 0.0291812 0.0110058 4.04244 
v 0.4632 0.181992 3.43404 
v 0.0417725 0.331475 3.70051 
v 0.0291812 0.0110058 4.04244 
v -0.0247254 -1.36101 4.92907 
v -0.032443 -1.55743 4.9964 
v 0.185174 -2.3053 4.48086 
v -0.0578552 -2.20421 4.73199 
v 0.533874 0.0368854 2.9863 
v 0.4632 0.181992 3.43404 
v 0.674069 -0.0671376 3.70055 
v 0.0291812 0.0110058 4.04244 
v 0.0368065 0.205081 2.93914 
v 0.0253777 -0.0857995 2.66452 
v 0.0413357 0.320357 3.30798 
v 0.0417725 0.331475 3.70051 
v 0.806502 -1.99135 3.60586 
v -0.0684128 -2.47292 4.00501 
v -0.062045 -2.31085 3.23216 
v -0.062045 -2.31085 3.23216 
v -0.0684128 -2.47292 4.00501 
v -0.902846 -1.92419 3.60586 
v 0.208647 -2.86288 4.73723 
v -0.0873305 -2.95441 4.63435 
v -0.0684128 -2.47292 4.00501 
v -0.117167 -3.71378 5.13034 
v 0.180542 -2.4232 4.16103 
v 0.210847 -2.80691 4.96417 
v 0.185174 -2.3053 4.48086 
v -0.0794118 -2.75286 5.14796 
v -0.117167 -3.71378 5.13034 
v -0.0578552 -2.20421 4.73199 
v -0.0794118 -2.75286 5.14796 
v -0.0578552 -2.20421 4.73199 
v -0.308067 -2.28592 4.48086 
v -0.373015 -2.78397 4.96417 
v -0.117167 -3.71378 5.13034 
v -0.312699 -2.40383 4.16103 
v -0.375215 -2.83994 4.73723 
v -0.0684128 -2.47292 4.00501 
v -0.0873305 -2.95441 4.63435 
v -0.117167 -3.71378 5.13034 
v -0.015209 -1.1188 3.00638 
v 0.0122321 -0.420377 2.63436 
v 0.712318 -0.339854 2.94266 
v 0.0253777 -0.0857995 2.66452 
v 0.485877 -0.946181 3.19728 
v -0.0270721 -1.42073 3.13178 
v 0.486502 -1.37239 3.33338 
v -0.0548918 -2.12879 3.1035 
v 0.441906 -0.724214 3.72579 
v 0.0291812 0.0110058 4.04244 
v 0.00478643 -0.609881 4.10208 
v 0.455696 -1.18743 3.95868 
v -0.0108054 -1.00672 4.32356 
v -0.0247254 -1.36101 4.92907 
v 0.806502 -1.99135 3.60586 
v -0.062045 -2.31085 3.23216 
v 0.761669 -1.60777 4.45646 
v -0.0247254 -1.36101 4.92907 
v 0.715039 -1.8058 4.53342 
v -0.0247254 -1.36101 4.92907 
v 0.75798 -2.17183 3.72527 
v -0.0684128 -2.47292 4.00501 
v 0.185174 -2.3053 4.48086 
v -0.0247254 -1.36101 4.92907 
v 0.180542 -2.4232 4.16103 
v -0.0684128 -2.47292 4.00501 
v -0.0578552 -2.20421 4.73199 
v -0.032443 -1.55743 4.9964 
v -0.0247254 -1.36101 4.92907 
v -0.828057 -1.54531 4.45646 
v -0.308067 -2.28592 4.48086 
v -0.490047 -1.15027 3.95868 
v -0.0108054 -1.00672 4.32356 
v -0.797108 -1.74638 4.53342 
v 0.00478643 -0.609881 4.10208 
v -0.902846 -1.92419 3.60586 
v -0.868635 -2.10792 3.72527 
v -0.312699 -2.40383 4.16103 
v -0.0684128 -2.47292 4.00501 
v -0.0684128 -2.47292 4.00501 
v -0.439956 -0.689566 3.72579 
v 0.0291812 0.0110058 4.04244 
v -0.53527 -1.33224 3.33338 
v -0.0548918 -2.12879 3.1035 
v -0.062045 -2.31085 3.23216 
v -0.0270721 -1.42073 3.13178 
v -0.61985 -0.0162992 3.70055 
v -0.501207 -0.907398 3.19728 
v -0.015209 -1.1188 3.00638 
v -0.679378 -0.285174 2.94266 
v 0.0122321 -0.420377 2.63436 
v 0.0253777 -0.0857995 2.66452 
v -0.471926 0.0764035 2.9863 
v -0.390084 0.215518 3.43404 
v 0.0291812 0.0110058 4.04244 
v 0.0368065 0.205081 2.93914 
v 0.0253777 -0.0857995 2.66452 
v 0.0413357 0.320357 3.30798 
v 0.0417725 0.331475 3.70051 
v 0.268928 -0.621986 0.329382 
v 0.19549 -0.871102 0.350579 
v 0.194264 -0.759035 -0.580148 
v -0.00472312 -0.851915 -0.580148 
v -0.00955457 -0.974883 0.363419 
v -0.0354397 -1.6337 1.71789 
v 0.397412 -0.828007 -0.921268 
v -0.0152092 -1.1188 -1.05811 
v 0.250532 -0.883547 -1.14267 
v -0.00557059 -0.873484 -1.26418 
v 0.316628 -1.46249 1.71789 
v -0.015209 -1.1188 3.00638 
v 0.344943 -0.866657 3.09913 
v 0.264549 -0.925809 1.71789 
v 0.357308 -0.551962 2.98774 
v 0.0127807 -0.406415 2.76722 
v -0.0023231 -0.79083 1.71789 
v 0.0102097 -0.471851 0.329382 
v 0.199506 -0.625625 -0.579911 
v 0.00713784 -0.550034 -0.579911 
v 0.0182545 -0.267097 -0.967322 
v 0.404941 -0.585498 -0.902645 
v 0.11017 -0.691507 -1.04628 
v 0.265791 -0.533608 -1.09199 
v 0.0081809 -0.523486 -1.21349 
v -0.25949 -0.601224 0.329382 
v -0.190568 -0.610299 -0.579911 
v -0.19581 -0.743708 -0.580148 
v 0.0102097 -0.471851 0.329382 
v 0.00713784 -0.550034 -0.579911 
v 0.0182545 -0.267097 -0.967322 
v -0.278963 -0.904454 1.71789 
v -0.0023231 -0.79083 1.71789 
v 0.0127807 -0.406415 2.76722 
v -0.342104 -0.524482 2.98774 
v -0.354468 -0.839177 3.09913 
v -0.372989 -1.4354 1.71789 
v -0.015209 -1.1188 3.00638 
v -0.0354397 -1.6337 1.71789 
v -0.205824 -0.855334 0.350579 
v -0.00955457 -0.974883 0.363419 
v -0.00472312 -0.851915 -0.580148 
v -0.403743 -0.79653 -0.921268 
v -0.0152092 -1.1188 -1.05811 
v -0.261673 -0.863422 -1.14267 
v -0.00557059 -0.873484 -1.26418 
v -0.392222 -0.554178 -0.902645 
v -0.106677 -0.682988 -1.04628 
v -0.249429 -0.513365 -1.09199 
v 0.0081809 -0.523486 -1.21349 

vn 0.425197 0.0314961 -0.905512 
vn 0.685039 -0.0944882 -0.724409 
vn 0 0.0472441 -1 
vn -0.692913 -0.0393701 -0.724409 
vn -0.425197 0.0708661 -0.905512 
vn 0 0.0472441 -1 
vn 0.685039 -0.0944882 -0.724409 
vn 0 0.0314961 -1 
vn 0 0.0472441 -1 
vn 0 0.0314961 -1 
vn -0.692913 -0.0393701 -0.724409 
vn 0 0.0472441 -1 
vn 0.685039 -0.0944882 -0.724409 
vn 0.425197 0.0314961 -0.905512 
vn 0.929134 -0.354331 -0.102362 
vn -0.425197 0.0708661 -0.905512 
vn -0.692913 -0.0393701 -0.724409 
vn -0.952756 -0.283465 -0.102362 
vn 0.425197 0.0314961 -0.905512 
vn 0 0.0472441 -1 
vn 0 0.0393701 -1 
vn 0 0.0472441 -1 
vn -0.425197 0.0708661 -0.905512 
vn 0 0.0393701 -1 
vn 0.661417 0.0708661 -0.740157 
vn 0.944882 0.314961 -0.0787402 
vn 0.425197 0.0314961 -0.905512 
vn 0 0.0393701 -1 
vn -0.913386 0.393701 -0.0787402 
vn -0.653543 0.125984 -0.740157 
vn -0.425197 0.0708661 -0.905512 
vn 0 0.0393701 -1 
vn 0.0393701 0.929134 0.370079 
vn -0.527559 0.850394 0.0629921 
vn 0.015748 0.409449 0.913386 
vn 0.590551 0.80315 0.0629921 
vn 0.0393701 0.929134 0.370079 
vn 0.015748 0.409449 0.913386 
vn 0.015748 0.346457 0.937008 
vn -0.00787402 -0.244094 0.968504 
vn 0.677165 -0.440945 0.598425 
vn -0.00787402 -0.244094 0.968504 
vn 0.622047 0.606299 -0.496063 
vn 0.590551 0.80315 0.0629921 
vn 0.850394 0.259843 0.464567 
vn 0.015748 0.409449 0.913386 
vn 0.0314961 0.858268 -0.511811 
vn 0.015748 0.409449 -0.913386 
vn 0.0393701 0.984252 -0.165354 
vn 0.0393701 0.929134 0.370079 
vn 0.866142 -0.370079 -0.330709 
vn -0.0393701 -0.913386 -0.401575 
vn -0.0393701 -0.913386 -0.401575 
vn -0.0393701 -0.913386 -0.401575 
vn -0.0393701 -0.913386 -0.401575 
vn -0.889764 -0.299213 -0.330709 
vn 0.874016 -0.377953 -0.299213 
vn -0.023622 -0.669291 -0.740157 
vn -0.0314961 -0.787402 -0.622047 
vn -0.0393701 -0.96063 0.283465 
vn 0.732283 -0.527559 -0.425197 
vn 0.88189 0.0787402 0.464567 
vn 0.937008 0.244094 0.244094 
vn 0.015748 0.322835 0.944882 
vn -0.0393701 -0.96063 0.283465 
vn 0.023622 0.669291 0.740157 
vn 0.015748 0.322835 0.944882 
vn 0.023622 0.669291 0.740157 
vn -0.913386 0.314961 0.244094 
vn -0.874016 0.149606 0.464567 
vn -0.0393701 -0.96063 0.283465 
vn -0.771654 -0.472441 -0.425197 
vn -0.905512 -0.307087 -0.299213 
vn -0.0314961 -0.787402 -0.622047 
vn -0.023622 -0.669291 -0.740157 
vn -0.0393701 -0.96063 0.283465 
vn -0.015748 -0.401575 -0.913386 
vn -0.00787402 -0.149606 -0.984252 
vn 0.866142 -0.0629921 -0.503937 
vn 0.015748 0.409449 -0.913386 
vn 0.834646 -0.322835 -0.440945 
vn -0.00787402 -0.188976 -0.984252 
vn 0.811024 0.015748 -0.590551 
vn -0.023622 -0.582677 -0.811024 
vn 0.88189 -0.015748 0.464567 
vn 0.015748 0.409449 0.913386 
vn 0.00787402 0.228346 0.976378 
vn 0.850394 0.456693 0.251969 
vn 0.0314961 0.76378 0.645669 
vn 0.015748 0.346457 0.937008 
vn 0.866142 -0.370079 -0.330709 
vn -0.0393701 -0.913386 -0.401575 
vn 0.866142 0.0866142 0.488189 
vn 0.015748 0.346457 0.937008 
vn 0.669291 -0.433071 0.598425 
vn 0.015748 0.346457 0.937008 
vn 0.622047 -0.787402 -0.0472441 
vn -0.0393701 -0.913386 -0.401575 
vn 0.677165 -0.440945 0.598425 
vn 0.015748 0.346457 0.937008 
vn 0.622047 -0.779528 -0.0472441 
vn -0.0393701 -0.913386 -0.401575 
vn -0.00787402 -0.244094 0.968504 
vn -0.00787402 -0.244094 0.968504 
vn 0.015748 0.346457 0.937008 
vn -0.858268 0.15748 0.488189 
vn -0.708661 -0.385827 0.598425 
vn -0.811024 0.527559 0.251969 
vn 0.0314961 0.76378 0.645669 
vn -0.700787 -0.377953 0.598425 
vn 0.00787402 0.228346 0.976378 
vn -0.889764 -0.299213 -0.330709 
vn -0.677165 -0.732283 -0.0472441 
vn -0.677165 -0.732283 -0.0472441 
vn -0.0393701 -0.913386 -0.401575 
vn -0.0393701 -0.913386 -0.401575 
vn -0.88189 0.0551181 0.464567 
vn 0.015748 0.409449 0.913386 
vn -0.80315 0.0787402 -0.590551 
vn -0.023622 -0.582677 -0.811024 
vn -0.0393701 -0.913386 -0.401575 
vn -0.00787402 -0.188976 -0.984252 
vn -0.826772 0.330709 0.464567 
vn -0.858268 -0.259843 -0.440945 
vn -0.015748 -0.401575 -0.913386 
vn -0.866142 0.00787402 -0.503937 
vn -0.00787402 -0.149606 -0.984252 
vn 0.015748 0.409449 -0.913386 
vn -0.574803 0.653543 -0.503937 
vn -0.527559 0.850394 0.0629921 
vn 0.015748 0.409449 0.913386 
vn 0.0314961 0.858268 -0.511811 
vn 0.015748 0.409449 -0.913386 
vn 0.0393701 0.984252 -0.165354 
vn 0.0393701 0.929134 0.370079 
vn 0.874016 0.488189 0.015748 
vn 0.826772 -0.535433 -0.165354 
vn 0.779528 -0.574803 0.251969 
vn -0.0393701 -0.976378 0.204724 
vn -0.0393701 -0.952756 -0.307087 
vn -0.0393701 -1 -0.0314961 
vn 0.929134 -0.354331 -0.102362 
vn -0.0393701 -0.984252 -0.15748 
vn 0.685039 -0.0944882 -0.724409 
vn 0 0.0314961 -1 
vn 0.80315 -0.598425 -0.0393701 
vn -0.0393701 -0.92126 0.385827 
vn 0.92126 -0.377953 0.11811 
vn 0.889764 0.448819 -0.0629921 
vn 0.897638 0.409449 -0.173228 
vn 0.0393701 0.944882 -0.330709 
vn 0.0393701 1 -0.0629921 
vn 0.0393701 1 0.0708661 
vn 0.834646 0.464567 0.307087 
vn 0.0393701 0.968504 0.259843 
vn 0.0393701 0.992126 -0.0787402 
vn 0.944882 0.314961 -0.0787402 
vn 0.425197 0.0314961 -0.905512 
vn 0.661417 0.0708661 -0.740157 
vn 0 0.0393701 -1 
vn -0.834646 0.559055 0.015748 
vn -0.795276 0.527559 0.307087 
vn -0.818898 -0.511811 0.251969 
vn 0.0393701 1 0.0708661 
vn 0.0393701 0.968504 0.259843 
vn 0.0393701 0.992126 -0.0787402 
vn -0.850394 0.519685 -0.0629921 
vn 0.0393701 1 -0.0629921 
vn 0.0393701 0.944882 -0.330709 
vn -0.866142 0.472441 -0.173228 
vn -0.944882 -0.299213 0.11811 
vn -0.84252 -0.535433 -0.0393701 
vn -0.0393701 -0.92126 0.385827 
vn -0.0393701 -1 -0.0314961 
vn -0.866142 -0.472441 -0.165354 
vn -0.0393701 -0.952756 -0.307087 
vn -0.0393701 -0.976378 0.204724 
vn -0.952756 -0.283465 -0.102362 
vn -0.0393701 -0.984252 -0.15748 
vn -0.692913 -0.0393701 -0.724409 
vn 0 0.0314961 -1 
vn -0.913386 0.393701 -0.0787402 
vn -0.425197 0.0708661 -0.905512 
vn -0.653543 0.125984 -0.740157 
vn 0 0.0393701 -1 

vt 0.922585 0.0567759 
vt 0.887509 0.0434656 
vt 0.923846 0.0399479 
vt 0.887509 0.0434656 
vt 0.922585 0.0567759 
vt 0.923846 0.0399479 
vt 0.887509 0.0434656 
vt 0.883398 0.0260051 
vt 0.923846 0.0399479 
vt 0.883398 0.0260051 
vt 0.887509 0.0434656 
vt 0.923846 0.0399479 
vt 0.887509 0.0434656 
vt 0.922585 0.0567759 
vt 0.908392 0.0822353 
vt 0.922585 0.0567759 
vt 0.887509 0.0434656 
vt 0.908392 0.0822353 
vt 0.922585 0.0567759 
vt 0.923846 0.0399479 
vt 0.958098 0.0247685 
vt 0.923846 0.0399479 
vt 0.922585 0.0567759 
vt 0.958098 0.0247685 
vt 0.949552 0.0480585 
vt 0.931909 0.0844072 
vt 0.922585 0.0567759 
vt 0.958098 0.0247685 
vt 0.931909 0.0844072 
vt 0.949552 0.0480585 
vt 0.922585 0.0567759 
vt 0.958098 0.0247685 
vt 0.827129 0.234248 
vt 0.793034 0.183203 
vt 0.764718 0.285705 
vt 0.793034 0.183203 
vt 0.827129 0.234248 
vt 0.764718 0.285705 
vt 0.539463 0.334317 
vt 0.494227 0.329831 
vt 0.433917 0.212835 
vt 0.424376 0.265036 
vt 0.784972 0.128356 
vt 0.793034 0.183203 
vt 0.754443 0.202127 
vt 0.764718 0.285705 
vt 0.844317 0.118047 
vt 0.81494 0.062493 
vt 0.846821 0.178131 
vt 0.827129 0.234248 
vt 0.533163 0.125362 
vt 0.416786 0.108754 
vt 0.480046 0.0233456 
vt 0.480046 0.0233456 
vt 0.416786 0.108754 
vt 0.533163 0.125362 
vt 0.298131 0.0760454 
vt 0.294803 0.0233347 
vt 0.428963 0.0177246 
vt 0.139866 0.0310127 
vt 0.417723 0.0666513 
vt 0.279614 0.106436 
vt 0.391098 0.118831 
vt 0.250633 0.152232 
vt 0.139866 0.0310127 
vt 0.366323 0.175677 
vt 0.250633 0.152232 
vt 0.366323 0.175677 
vt 0.391098 0.118831 
vt 0.279614 0.106436 
vt 0.139866 0.0310127 
vt 0.417723 0.0666513 
vt 0.298131 0.0760454 
vt 0.428963 0.0177246 
vt 0.294803 0.0233347 
vt 0.139866 0.0310127 
vt 0.660488 0.0409256 
vt 0.758671 0.0317376 
vt 0.745664 0.117258 
vt 0.81494 0.062493 
vt 0.669245 0.114936 
vt 0.619531 0.0403345 
vt 0.615282 0.112858 
vt 0.526385 0.0106479 
vt 0.675171 0.194287 
vt 0.764718 0.285705 
vt 0.687078 0.268005 
vt 0.611806 0.20345 
vt 0.613912 0.282961 
vt 0.539463 0.334317 
vt 0.533163 0.125362 
vt 0.480046 0.0233456 
vt 0.532367 0.226567 
vt 0.539463 0.334317 
vt 0.515485 0.2269 
vt 0.539463 0.334317 
vt 0.517491 0.128105 
vt 0.416786 0.108754 
vt 0.433917 0.212835 
vt 0.539463 0.334317 
vt 0.433376 0.15101 
vt 0.416786 0.108754 
vt 0.424376 0.265036 
vt 0.494227 0.329831 
vt 0.539463 0.334317 
vt 0.532367 0.226567 
vt 0.433917 0.212835 
vt 0.611806 0.20345 
vt 0.613912 0.282961 
vt 0.515485 0.2269 
vt 0.687078 0.268005 
vt 0.533163 0.125362 
vt 0.517491 0.128105 
vt 0.433376 0.15101 
vt 0.416786 0.108754 
vt 0.416786 0.108754 
vt 0.675171 0.194287 
vt 0.764718 0.285705 
vt 0.615282 0.112858 
vt 0.526385 0.0106479 
vt 0.480046 0.0233456 
vt 0.619531 0.0403345 
vt 0.754443 0.202127 
vt 0.669245 0.114936 
vt 0.660488 0.0409256 
vt 0.745664 0.117258 
vt 0.758671 0.0317376 
vt 0.81494 0.062493 
vt 0.784972 0.128356 
vt 0.793034 0.183203 
vt 0.764718 0.285705 
vt 0.844317 0.118047 
vt 0.81494 0.062493 
vt 0.846821 0.178131 
vt 0.827129 0.234248 
vt 0.929281 0.25059 
vt 0.897471 0.255721 
vt 0.909211 0.132201 
vt 0.878308 0.134379 
vt 0.867113 0.253516 
vt 0.795429 0.378964 
vt 0.908392 0.0822353 
vt 0.843456 0.0679099 
vt 0.887509 0.0434656 
vt 0.883398 0.0260051 
vt 0.84404 0.380871 
vt 0.86249 0.60399 
vt 0.915679 0.610961 
vt 0.912136 0.374509 
vt 0.954532 0.596959 
vt 0.994319 0.567189 
vt 0.950995 0.371994 
vt 0.967485 0.25035 
vt 0.932473 0.131917 
vt 0.961735 0.134631 
vt 0.995353 0.0777659 
vt 0.931909 0.0844072 
vt 0.922585 0.0567759 
vt 0.949552 0.0480585 
vt 0.958098 0.0247685 
vt 0.929281 0.25059 
vt 0.932473 0.131917 
vt 0.909211 0.132201 
vt 0.967485 0.25035 
vt 0.961735 0.134631 
vt 0.995353 0.0777659 
vt 0.912136 0.374509 
vt 0.950995 0.371994 
vt 0.994319 0.567189 
vt 0.954532 0.596959 
vt 0.915679 0.610961 
vt 0.84404 0.380871 
vt 0.86249 0.60399 
vt 0.795429 0.378964 
vt 0.897471 0.255721 
vt 0.867113 0.253516 
vt 0.878308 0.134379 
vt 0.908392 0.0822353 
vt 0.843456 0.0679099 
vt 0.887509 0.0434656 
vt 0.883398 0.0260051 
vt 0.931909 0.0844072 
vt 0.922585 0.0567759 
vt 0.949552 0.0480585 
vt 0.958098 0.0247685 

usemtl Weapon0021Mtl

f 1/1/1 2/2/2 3/3/3 
f 4/4/4 5/5/5 6/6/6 
f 7/7/7 8/8/8 9/9/9 
f 10/10/10 11/11/11 12/12/12 
f 13/13/13 14/14/14 15/15/15 
f 16/16/16 17/17/17 18/18/18 
f 19/19/19 20/20/20 21/21/21 
f 22/22/22 23/23/23 24/24/24 
f 25/25/25 26/26/26 27/27/27 
f 25/25/25 27/27/27 28/28/28 
f 29/29/29 30/30/30 31/31/31 
f 31/31/31 30/30/30 32/32/32 
f 33/33/33 34/34/34 35/35/35 
f 36/36/36 37/37/37 38/38/38 
f 39/39/39 40/40/40 41/41/41 
f 41/41/41 40/40/40 42/42/42 
f 43/43/43 44/44/44 45/45/45 
f 45/45/45 44/44/44 46/46/46 
f 44/44/44 43/43/43 47/47/47 
f 48/48/48 47/47/47 43/43/43 
f 49/49/49 44/44/44 47/47/47 
f 50/50/50 44/44/44 49/49/49 
f 51/51/51 52/52/52 53/53/53 
f 54/54/54 55/55/55 56/56/56 
f 57/57/57 58/58/58 59/59/59 
f 60/60/60 58/58/58 57/57/57 
f 61/61/61 57/57/57 59/59/59 
f 60/60/60 57/57/57 62/62/62 
f 62/62/62 57/57/57 61/61/61 
f 63/63/63 62/62/62 61/61/61 
f 64/64/64 62/62/62 63/63/63 
f 65/65/65 62/62/62 64/64/64 
f 66/66/66 64/64/64 63/63/63 
f 67/67/67 68/68/68 69/69/69 
f 70/70/70 67/67/67 69/69/69 
f 70/70/70 71/71/71 67/67/67 
f 70/70/70 69/69/69 72/72/72 
f 73/73/73 71/71/71 70/70/70 
f 73/73/73 70/70/70 72/72/72 
f 73/73/73 72/72/72 74/74/74 
f 75/75/75 73/73/73 74/74/74 
f 75/75/75 76/76/76 73/73/73 
f 77/77/77 78/78/78 79/79/79 
f 78/78/78 80/80/80 79/79/79 
f 80/80/80 43/43/43 79/79/79 
f 81/81/81 77/77/77 79/79/79 
f 82/82/82 77/77/77 81/81/81 
f 79/79/79 43/43/43 45/45/45 
f 81/81/81 79/79/79 45/45/45 
f 83/83/83 82/82/82 81/81/81 
f 84/84/84 82/82/82 83/83/83 
f 85/85/85 81/81/81 45/45/45 
f 83/83/83 81/81/81 85/85/85 
f 45/45/45 86/86/86 85/85/85 
f 86/86/86 87/87/87 85/85/85 
f 85/85/85 87/87/87 88/88/88 
f 88/88/88 83/83/83 85/85/85 
f 87/87/87 89/89/89 88/88/88 
f 88/88/88 89/89/89 90/90/90 
f 91/91/91 84/84/84 83/83/83 
f 91/91/91 83/83/83 88/88/88 
f 92/92/92 84/84/84 91/91/91 
f 93/93/93 91/91/91 88/88/88 
f 93/93/93 88/88/88 94/94/94 
f 91/91/91 93/93/93 95/95/95 
f 95/95/95 93/93/93 96/96/96 
f 97/97/97 91/91/91 95/95/95 
f 91/91/91 97/97/97 98/98/98 
f 97/97/97 95/95/95 99/99/99 
f 100/100/100 99/99/99 95/95/95 
f 99/99/99 101/101/101 97/97/97 
f 97/97/97 101/101/101 102/102/102 
f 103/103/103 104/104/104 105/105/105 
f 105/105/105 106/106/106 103/103/103 
f 106/106/106 107/107/107 103/103/103 
f 108/108/108 106/106/106 105/105/105 
f 109/109/109 108/108/108 105/105/105 
f 106/106/106 110/110/110 107/107/107 
f 109/109/109 111/111/111 108/108/108 
f 110/110/110 106/106/106 112/112/112 
f 112/112/112 106/106/106 108/108/108 
f 107/107/107 110/110/110 113/113/113 
f 110/110/110 112/112/112 113/113/113 
f 113/113/113 114/114/114 107/107/107 
f 115/115/115 114/114/114 113/113/113 
f 116/116/116 113/113/113 112/112/112 
f 111/111/111 117/117/117 108/108/108 
f 111/111/111 118/118/118 117/117/117 
f 119/119/119 112/112/112 108/108/108 
f 119/119/119 108/108/108 117/117/117 
f 120/120/120 112/112/112 119/119/119 
f 112/112/112 120/120/120 121/121/121 
f 122/122/122 120/120/120 119/119/119 
f 118/118/118 123/123/123 117/117/117 
f 122/122/122 119/119/119 124/124/124 
f 124/124/124 119/119/119 117/117/117 
f 124/124/124 117/117/117 123/123/123 
f 125/125/125 122/122/122 124/124/124 
f 125/125/125 124/124/124 126/126/126 
f 126/126/126 124/124/124 123/123/123 
f 127/127/127 125/125/125 126/126/126 
f 128/128/128 127/127/127 126/126/126 
f 129/129/129 128/128/128 126/126/126 
f 129/129/129 126/126/126 123/123/123 
f 130/130/130 129/129/129 123/123/123 
f 130/130/130 123/123/123 131/131/131 
f 129/129/129 130/130/130 132/132/132 
f 132/132/132 133/133/133 129/129/129 
f 130/130/130 134/134/134 132/132/132 
f 130/130/130 135/135/135 134/134/134 
f 136/136/136 137/137/137 138/138/138 
f 138/138/138 137/137/137 139/139/139 
f 137/137/137 140/140/140 139/139/139 
f 141/141/141 140/140/140 137/137/137 
f 138/138/138 139/139/139 142/142/142 
f 139/139/139 143/143/143 142/142/142 
f 144/144/144 142/142/142 143/143/143 
f 144/144/144 143/143/143 145/145/145 
f 146/146/146 141/141/141 137/137/137 
f 146/146/146 137/137/137 136/136/136 
f 147/147/147 141/141/141 146/146/146 
f 148/148/148 147/147/147 146/146/146 
f 148/148/148 146/146/146 149/149/149 
f 149/149/149 146/146/146 136/136/136 
f 150/150/150 148/148/148 149/149/149 
f 150/150/150 149/149/149 151/151/151 
f 149/149/149 152/152/152 151/151/151 
f 152/152/152 149/149/149 153/153/153 
f 149/149/149 136/136/136 153/153/153 
f 153/153/153 136/136/136 154/154/154 
f 155/155/155 153/153/153 154/154/154 
f 154/154/154 136/136/136 138/138/138 
f 155/155/155 154/154/154 156/156/156 
f 154/154/154 138/138/138 157/157/157 
f 154/154/154 157/157/157 156/156/156 
f 138/138/138 142/142/142 157/157/157 
f 158/158/158 157/157/157 142/142/142 
f 156/156/156 157/157/157 159/159/159 
f 159/159/159 160/160/160 156/156/156 
f 161/161/161 162/162/162 163/163/163 
f 161/161/161 164/164/164 162/162/162 
f 164/164/164 165/165/165 162/162/162 
f 162/162/162 165/165/165 166/166/166 
f 161/161/161 167/167/167 164/164/164 
f 167/167/167 168/168/168 164/164/164 
f 168/168/168 167/167/167 169/169/169 
f 167/167/167 170/170/170 169/169/169 
f 171/171/171 170/170/170 167/167/167 
f 172/172/172 171/171/171 167/167/167 
f 172/172/172 167/167/167 161/161/161 
f 173/173/173 171/171/171 172/172/172 
f 174/174/174 173/173/173 172/172/172 
f 175/175/175 172/172/172 161/161/161 
f 174/174/174 172/172/172 175/175/175 
f 176/176/176 174/174/174 175/175/175 
f 175/175/175 161/161/161 163/163/163 
f 176/176/176 175/175/175 177/177/177 
f 175/175/175 163/163/163 177/177/177 
f 177/177/177 163/163/163 178/178/178 
f 179/179/179 177/177/177 178/178/178 
f 178/178/178 180/180/180 179/179/179 
f 179/179/179 180/180/180 181/181/181 
f 178/178/178 163/163/163 182/182/182 
f 182/182/182 183/183/183 178/178/178 
f 163/163/163 162/162/162 182/182/182 
f 182/182/182 162/162/162 166/166/166 
f 182/182/182 166/166/166 184/184/184 
f 185/185/185 184/184/184 166/166/166 

