# Blender 4.5.1 LTS
# www.blender.org
o shop_black_market
v -0.185706 -0.038267 -0.572414
v -0.031408 -0.042305 -0.376958
v -0.047456 -0.042230 -0.592538
v -0.183249 -0.042488 -0.376458
v -0.079368 -0.042065 -0.044137
v -0.256546 -0.053541 -0.029262
v -0.250033 -0.041188 0.281501
v -0.039693 -0.042264 0.291793
v -0.023876 -0.042349 0.855469
v 0.236119 -0.043678 0.317447
v 0.240814 -0.043698 0.444515
v 0.257529 -0.043790 0.606936
v 0.266574 -0.043829 0.881344
v -0.393557 -0.040452 0.820302
v 0.300533 -0.044011 0.447551
v 0.316143 -0.044094 0.609537
v -0.495137 -0.039934 0.396046
v -0.526574 -0.039777 0.534920
v -0.553675 -0.039629 0.534561
v -0.607679 -0.039360 0.805037
v -0.499656 -0.039911 0.252487
v -0.526665 -0.039772 0.399324
v -0.405034 -0.040398 0.859916
v -0.052066 -0.042197 0.935529
v -0.280625 -0.041031 1.131853
v -0.210918 -0.041391 1.075318
v -0.118214 -0.041873 1.123371
v 0.168031 -0.043327 1.019509
v 0.194312 -0.043464 1.057136
v 0.108856 -0.043033 1.241085
v -0.230394 -0.041286 1.131672
v 0.236363 0.024904 0.317447
v -0.039427 0.026310 0.291793
v -0.031165 0.026269 -0.376958
v -0.047190 0.026349 -0.592538
v -0.393306 0.028128 0.820302
v -0.404768 0.028178 0.859916
v -0.185433 0.030303 -0.572414
v -0.182990 0.026088 -0.376458
v -0.079117 0.026506 -0.044137
v -0.256289 0.015025 -0.029262
v -0.249766 0.027390 0.281501
v -0.499404 0.028666 0.252487
v 0.266847 0.024739 0.881344
v 0.257772 0.024787 0.606936
v -0.526399 0.028805 0.399324
v -0.023609 0.026232 0.855469
v -0.607428 0.029216 0.805037
v 0.241057 0.024869 0.444515
v 0.316402 0.024488 0.609537
v 0.300806 0.024560 0.447551
v -0.553417 0.028934 0.534561
v -0.526315 0.028798 0.534920
v -0.494878 0.028655 0.396046
v -0.280358 0.027548 1.131853
v -0.230137 0.027280 1.131672
v -0.210652 0.027181 1.075318
v -0.117955 0.026707 1.123371
v 0.109116 0.025558 1.241085
v 0.194578 0.025110 1.057136
v 0.168289 0.025239 1.019509
v -0.051800 0.026367 0.935529
vn -0.0137 -0.9999 -0.0098
vn 0.0100 -0.9999 -0.0097
vn 0.0120 -0.9999 -0.0099
vn 0.0312 -0.9995 0.0028
vn 0.0305 -0.9995 0.0052
vn 0.0057 -1.0000 0.0057
vn 0.0049 -1.0000 0.0053
vn -0.0051 -1.0000 -0.0000
vn -0.0052 -1.0000 -0.0000
vn -0.0052 -1.0000 0.0001
vn -0.0053 -1.0000 0.0001
vn -0.0051 -1.0000 -0.0001
vn -0.0052 -1.0000 -0.0001
vn -0.0051 -1.0000 0.0001
vn 0.0926 -0.0004 -0.9957
vn 0.0926 -0.0003 -0.9957
vn 0.9972 -0.0039 -0.0741
vn 0.9972 -0.0035 -0.0742
vn -0.9606 0.0037 -0.2779
vn -0.9605 0.0035 -0.2783
vn -0.9999 0.0038 0.0126
vn -0.9999 0.0038 0.0125
vn -0.9999 0.0039 0.0126
vn -0.9999 0.0040 0.0126
vn 0.9931 -0.0036 -0.1173
vn 0.9931 -0.0039 -0.1173
vn -0.9998 0.0039 0.0208
vn -0.9998 0.0038 0.0208
vn 0.1154 -0.0004 -0.9933
vn 0.1155 -0.0004 -0.9933
vn 0.9994 -0.0035 -0.0331
vn 0.9994 -0.0040 -0.0329
vn -0.9835 0.0038 -0.1808
vn -0.9835 0.0036 -0.1809
vn -0.0887 0.0004 0.9961
vn -0.0887 0.0003 0.9961
vn -0.0711 0.0003 0.9975
vn 0.9993 -0.0035 -0.0369
vn -0.0443 0.0002 0.9990
vn 0.0507 -0.0002 -0.9987
vn 0.0508 -0.0002 -0.9987
vn 0.9954 -0.0040 -0.0958
vn 0.9954 -0.0038 -0.0959
vn 0.9898 -0.0035 0.1426
vn 0.9898 -0.0036 0.1426
vn -0.9785 0.0037 -0.2065
vn -0.9785 0.0037 -0.2064
vn -0.9806 0.0036 -0.1958
vn -0.9806 0.0037 -0.1958
vn 0.0132 -0.0000 -0.9999
vn 0.1035 -0.0004 0.9946
vn 0.1034 -0.0004 0.9946
vn -0.9753 0.0037 -0.2208
vn -0.9093 0.0035 0.4160
vn 0.0036 -0.0000 1.0000
vn 0.9451 -0.0037 0.3268
vn 0.9451 -0.0036 0.3266
vn -0.4602 0.0017 0.8878
vn -0.4602 0.0018 0.8878
vn 0.9069 -0.0035 0.4213
vn 0.9069 -0.0034 0.4213
vn 0.8197 -0.0031 -0.5727
vn 0.8198 -0.0032 -0.5726
vn 0.9432 -0.0037 0.3321
vn 0.3565 -0.0014 -0.9343
vn 0.3565 -0.0013 -0.9343
vt 0.435723 0.729727
vt 0.412756 0.728967
vt 0.411235 0.777365
vt 0.432642 0.769790
vt 0.420288 0.811309
vt 0.442442 0.810297
vt 0.443066 0.853896
vt 0.411032 0.853978
vt 0.409362 0.937661
vt 0.375552 0.857941
vt 0.373156 0.877610
vt 0.371685 0.897697
vt 0.367546 0.936954
vt 0.461908 0.934721
vt 0.365308 0.877333
vt 0.363680 0.898098
vt 0.476762 0.871273
vt 0.481905 0.893795
vt 0.485558 0.893875
vt 0.492568 0.935202
vt 0.472902 0.856824
vt 0.480465 0.870538
vt 0.464539 0.943107
vt 0.413868 0.950502
vt 0.447011 0.977799
vt 0.436912 0.969904
vt 0.423609 0.975612
vt 0.383589 0.959184
vt 0.380019 0.963975
vt 0.391823 0.991431
vt 0.439776 0.977443
vt 0.426772 0.803052
vt 0.431198 0.799317
vt 0.427935 0.783546
vt 0.423509 0.787281
vt 0.427818 0.784223
vt 0.423525 0.788546
vt 0.426472 0.800484
vt 0.430765 0.796161
vt 0.422243 0.781297
vt 0.428409 0.806911
vt 0.431741 0.803639
vt 0.425575 0.778025
vt 0.429076 0.787491
vt 0.424786 0.791824
vt 0.427476 0.802692
vt 0.431767 0.798359
vt 0.427519 0.780413
vt 0.423133 0.784337
vt 0.427318 0.803422
vt 0.431703 0.799499
vt 0.427227 0.783450
vt 0.422795 0.787157
vt 0.426434 0.804901
vt 0.430866 0.801193
vt 0.426834 0.802262
vt 0.431126 0.797939
vt 0.427701 0.784061
vt 0.423408 0.788384
vt 0.427674 0.783830
vt 0.423356 0.788050
vt 0.427010 0.803300
vt 0.431328 0.799079
vt 0.424057 0.790145
vt 0.426066 0.798943
vt 0.430208 0.795085
vt 0.428199 0.786287
vt 0.427054 0.782423
vt 0.422762 0.786745
vt 0.426737 0.802848
vt 0.431029 0.798525
vt 0.427469 0.784709
vt 0.423257 0.789346
vt 0.426397 0.800978
vt 0.430608 0.796341
vt 0.429829 0.796281
vt 0.428040 0.787293
vt 0.424435 0.790219
vt 0.426224 0.799208
vt 0.423103 0.785560
vt 0.427750 0.803391
vt 0.431050 0.799883
vt 0.426403 0.782052
vt 0.430359 0.800503
vt 0.425833 0.781896
vt 0.422323 0.785378
vt 0.426849 0.803985
vt 0.430633 0.797375
vt 0.428431 0.788768
vt 0.424014 0.793377
vt 0.426216 0.801984
vt 0.427020 0.781315
vt 0.422697 0.785514
vt 0.427150 0.804213
vt 0.431473 0.800013
vt 0.427043 0.804921
vt 0.431407 0.800902
vt 0.426903 0.780952
vt 0.422538 0.784971
vt 0.427236 0.802715
vt 0.431518 0.798351
vt 0.427722 0.783156
vt 0.423439 0.787521
vt 0.420309 0.773325
vt 0.431518 0.821770
vt 0.435657 0.817864
vt 0.424448 0.769418
vt 0.432312 0.808385
vt 0.425039 0.777717
vt 0.421974 0.780683
vt 0.429246 0.811350
vt 0.423775 0.794050
vt 0.425679 0.802941
vt 0.429672 0.799453
vt 0.427768 0.790562
vt 0.427703 0.783576
vt 0.423408 0.787886
vt 0.427473 0.804412
vt 0.431769 0.800101
vt 0.421339 0.780043
vt 0.428815 0.808442
vt 0.433313 0.803611
vt 0.425837 0.775212
vt 0.432572 0.803544
vt 0.426650 0.780064
vt 0.422235 0.784607
vt 0.428157 0.808086
vt 0.423372 0.787462
vt 0.426734 0.802040
vt 0.431535 0.797524
vt 0.428173 0.782946
vt 0.427813 0.784395
vt 0.423571 0.788916
vt 0.431460 0.798354
vt 0.428112 0.786041
vt 0.423799 0.790283
vt 0.426513 0.801535
vt 0.430825 0.797293
vt 0.431785 0.804024
vt 0.426265 0.781762
vt 0.423043 0.785021
vt 0.428563 0.807283
vt 0.431502 0.800385
vt 0.427557 0.783364
vt 0.423000 0.787671
vt 0.426945 0.804693
vt 0.426418 0.799788
vt 0.430610 0.795077
vt 0.427110 0.782375
vt 0.422918 0.787085
s 1
f 1/1/1 3/2/1 2/3/2
f 1/1/1 2/3/2 4/4/3
f 4/4/3 2/3/2 5/5/4
f 4/4/3 5/5/4 6/6/5
f 7/7/6 6/6/5 5/5/4
f 7/7/6 5/5/4 8/8/7
f 9/9/8 7/7/6 8/8/7
f 10/10/8 9/9/8 8/8/7
f 9/9/8 10/10/8 11/11/8
f 9/9/8 11/11/8 12/12/9
f 9/9/8 12/12/9 13/13/8
f 9/9/8 14/14/8 7/7/6
f 15/15/9 12/12/9 11/11/8
f 15/15/9 16/16/9 12/12/9
f 14/14/8 17/17/8 7/7/6
f 14/14/8 18/18/10 17/17/8
f 14/14/8 19/19/11 18/18/10
f 14/14/8 20/20/8 19/19/11
f 21/21/8 7/7/6 17/17/8
f 21/21/8 17/17/8 22/22/8
f 9/9/8 23/23/12 14/14/8
f 23/23/12 9/9/8 24/24/8
f 23/23/12 24/24/8 25/25/8
f 25/25/8 24/24/8 26/26/13
f 27/27/12 26/26/13 24/24/8
f 28/28/12 27/27/12 24/24/8
f 27/27/12 28/28/12 29/29/8
f 27/27/12 29/29/8 30/30/8
f 25/25/8 26/26/13 31/31/14
f 8/32/15 33/33/15 32/34/15
f 8/32/16 32/34/16 10/35/16
f 3/36/17 35/37/17 34/38/17
f 3/36/18 34/38/18 2/39/18
f 23/40/19 37/41/19 36/42/19
f 23/40/20 36/42/20 14/43/20
f 4/44/21 39/45/22 38/46/23
f 4/44/21 38/46/23 1/47/24
f 5/48/25 40/49/25 33/50/25
f 5/48/26 33/50/26 8/51/26
f 7/52/27 42/53/27 41/54/27
f 7/52/28 41/54/28 6/55/28
f 21/56/29 43/57/29 42/58/29
f 21/56/30 42/58/30 7/59/30
f 12/60/31 45/61/31 44/62/31
f 12/60/32 44/62/32 13/63/32
f 22/64/33 46/65/33 43/66/33
f 22/64/34 43/66/34 21/67/34
f 13/68/35 44/69/35 47/70/35
f 13/68/36 47/70/36 9/71/36
f 14/72/37 36/73/37 48/74/37
f 14/72/37 48/74/37 20/75/37
f 10/76/38 32/77/38 49/78/38
f 10/76/38 49/78/38 11/79/38
f 16/80/39 50/81/39 45/82/39
f 16/80/39 45/82/39 12/83/39
f 11/84/40 49/85/40 51/86/40
f 11/84/41 51/86/41 15/87/41
f 15/88/42 51/89/42 50/90/42
f 15/88/43 50/90/43 16/91/43
f 2/92/44 34/93/44 40/94/44
f 2/92/45 40/94/45 5/95/45
f 6/96/46 41/97/46 39/98/46
f 6/96/47 39/98/47 4/99/47
f 20/100/48 48/101/48 52/102/48
f 20/100/49 52/102/49 19/103/49
f 19/104/50 52/105/50 53/106/50
f 19/104/50 53/106/50 18/107/50
f 17/108/51 54/109/51 46/110/51
f 17/108/52 46/110/52 22/111/52
f 18/112/53 53/113/53 54/114/53
f 18/112/53 54/114/53 17/115/53
f 25/116/54 55/117/54 37/118/54
f 25/116/54 37/118/54 23/119/54
f 31/120/55 56/121/55 55/122/55
f 31/120/55 55/122/55 25/123/55
f 26/124/56 57/125/56 56/126/56
f 26/124/57 56/126/57 31/127/57
f 27/128/58 58/129/58 57/130/58
f 27/128/59 57/130/59 26/131/59
f 30/132/58 59/133/58 58/129/58
f 30/132/58 58/129/58 27/134/58
f 29/135/60 60/136/60 59/137/60
f 29/135/61 59/137/61 30/138/61
f 28/139/62 61/140/62 60/141/62
f 28/139/63 60/141/63 29/142/63
f 9/143/64 47/144/64 62/145/64
f 9/143/64 62/145/64 24/146/64
f 24/147/65 62/148/65 61/149/65
f 24/147/66 61/149/66 28/150/66
